<svg width="22" height="22" viewBox="0 0 22 22" fill="none" xmlns="http://www.w3.org/2000/svg">
<path d="M15.4423 8.88461C16.3769 8.88461 17.1346 8.12694 17.1346 7.19231C17.1346 6.25767 16.3769 5.5 15.4423 5.5C14.5077 5.5 13.75 6.25767 13.75 7.19231C13.75 8.12694 14.5077 8.88461 15.4423 8.88461Z" fill="url(#paint0_linear_1661_5761)"/>
<path fill-rule="evenodd" clip-rule="evenodd" d="M0 3.38462V18.6154C0 20.4846 1.51534 22 3.38462 22H18.6154C20.4847 22 22 20.4847 22 18.6154V3.38462C22 1.51534 20.4847 0 18.6154 0H3.38462C1.51534 0 0 1.51534 0 3.38462ZM18.6154 2.75H3.38462C3.03413 2.75 2.75 3.03413 2.75 3.38462V7.80176C3.36608 7.67948 4.00309 7.61536 4.65509 7.61536C10.0292 7.61536 14.3859 11.972 14.3859 17.3461C14.3859 17.9977 14.3218 18.6343 14.1997 19.25H18.6154C18.9659 19.25 19.25 18.9659 19.25 18.6154V3.38462C19.25 3.03413 18.9659 2.75 18.6154 2.75ZM2.75 18.6154V10.6277C3.35412 10.4569 3.99269 10.3654 4.65509 10.3654C8.51046 10.3654 11.6359 13.4908 11.6359 17.3461C11.6359 18.0081 11.5444 18.6462 11.3738 19.25H3.38462C3.3189 19.25 3.25551 19.24 3.1959 19.2215C2.93757 19.1411 2.75 18.9001 2.75 18.6154Z" fill="url(#paint1_linear_1661_5761)"/>
<defs>
<linearGradient id="paint0_linear_1661_5761" x1="22" y1="-1.3113e-06" x2="-1.3113e-06" y2="22" gradientUnits="userSpaceOnUse">
<stop stop-color="#893DF5"/>
<stop offset="1" stop-color="#5890EB"/>
</linearGradient>
<linearGradient id="paint1_linear_1661_5761" x1="22" y1="-1.3113e-06" x2="-1.3113e-06" y2="22" gradientUnits="userSpaceOnUse">
<stop stop-color="#893DF5"/>
<stop offset="1" stop-color="#5890EB"/>
</linearGradient>
</defs>
</svg>
